<svg width="192" height="168" viewBox="0 0 192 168" fill="none" xmlns="http://www.w3.org/2000/svg">
<path d="M95.7259 36.228L31.8014 75.5395V147.892L48.2137 137.686V84.746L95.7259 55.8728L143.24 84.746V137.686L159.652 147.892V75.5395L95.9314 36.3551L95.7259 36.228Z" fill="#FFCC00"/>
<path d="M63.4129 92.7712L63.2199 92.8857L63.3187 128.296L79.7906 118.057V102.307L95.7258 92.7351L111.663 102.307V118.057L128.134 128.296L128.232 92.8857L95.7258 73.5249L63.4129 92.7712Z" fill="#FFCC00"/>
<path d="M95.7258 0L0 59.8367V168L15.5319 158.345V68.4689L95.7258 18.2827L175.921 68.4689V158.345L191.453 168V59.8367L95.7258 0Z" fill="#FFCC00"/>
</svg>
