<svg width="210" height="164" viewBox="0 0 210 164" fill="none" xmlns="http://www.w3.org/2000/svg">
<path d="M177.457 142.926H33.5427C28.5895 142.926 24.5742 146.941 24.5742 151.894C24.5742 156.847 28.5895 160.863 33.5427 160.863H177.457C182.41 160.863 186.426 156.847 186.426 151.894C186.426 146.941 182.41 142.926 177.457 142.926Z" fill="#FCB006"/>
<path d="M206.904 57.7371L200.881 42.4988L187.047 41.6633L179.235 56.0686L185.258 71.3068C177.322 79.5803 163.957 89.7022 143.444 86.5106C121.567 83.1046 112.004 52.7464 108.004 32.1181H114.075L122.646 17.2693L114.075 2.42285H96.9287L88.357 17.2693L96.9287 32.1181H102.826C98.8264 52.734 89.2713 83.1046 67.3862 86.5106C47.586 89.5913 33.6466 80.3123 25.5653 72.2163L31.0366 58.3754L23.224 43.9726L9.39053 44.8056L3.36719 60.0439L11.1773 74.4491L19.6775 73.9365L33.5455 142.919H177.285L191.607 71.6938L199.094 72.1448L206.904 57.7371Z" fill="#FDC102"/>
<path d="M105.133 142.926H33.5427C31.1641 142.926 28.8829 143.871 27.201 145.553C25.5191 147.235 24.5742 149.516 24.5742 151.894C24.5742 154.273 25.5191 156.554 27.201 158.236C28.8829 159.918 31.1641 160.863 33.5427 160.863H105.133V142.926Z" fill="#FFCB8D"/>
<path d="M105.136 2.42285H96.9287L88.357 17.2693L96.9287 32.1181H102.826C98.8264 52.734 89.2713 83.1046 67.3862 86.5106C47.586 89.5913 33.6466 80.3123 25.5653 72.2163L31.0366 58.3754L23.224 43.9726L9.39053 44.8056L3.36719 60.0439L11.1773 74.4491L19.6775 73.9365L33.5455 142.919H105.136V2.42285Z" fill="#FFE08A"/>
<path d="M110.483 8.19971H100.497L95.5039 16.8478L100.497 25.4959H110.483L115.474 16.8478L110.483 8.19971Z" fill="#E2692B"/>
<path d="M110.483 8.19971H100.497L95.5039 16.8478L100.497 25.4959H110.483L115.474 16.8478L110.483 8.19971Z" fill="#E2692B"/>
<path d="M68.4248 102.048H58.4385L53.4453 110.696L58.4385 119.345H68.4248L73.4155 110.696L68.4248 102.048Z" fill="#E2692B"/>
<path d="M152.261 102.048H142.274L137.281 110.696L142.274 119.345H152.261L157.251 110.696L152.261 102.048Z" fill="#E2692B"/>
<path d="M20.4264 50.501L13.0377 50.846L9.75 59.6568L13.8461 68.1225L21.2348 67.7774L24.5249 58.9667L20.4264 50.501Z" fill="#E2692B"/>
<path d="M189.876 48.5703L197.262 48.9153L200.552 57.7261L196.454 66.1918L189.068 65.8468L185.777 57.036L189.876 48.5703Z" fill="#E2692B"/>
<path d="M129.142 123.34V96.0451L105.505 82.3989L81.8672 96.0451V123.34L105.505 136.989L129.142 123.34Z" fill="#E8AD05"/>
<path d="M124.901 120.899V98.4914L105.496 87.2876L86.0898 98.4914V120.899L105.496 132.103L124.901 120.899Z" fill="#D69505"/>
<path d="M111.587 108.601V115.74L113.697 117.052V107.418L105.128 102.148L96.5586 107.418V117.052L98.6682 115.74V108.601L105.128 104.675L111.587 108.601Z" fill="#FFCC00"/>
<path d="M114.01 117.591L111.299 115.901V108.753L105.138 105.01L98.9766 108.753V115.901L96.2656 117.584V107.233L105.138 101.779L114.01 107.233V117.591ZM96.8744 107.585V116.512L98.3827 115.573V108.426L105.138 104.317L111.898 108.428V115.575L113.407 116.514V107.585L105.138 102.501L96.8744 107.585Z" fill="#FFCC00"/>
<path d="M107.316 110.967V113.092L109.433 114.408L109.446 109.757L105.115 107.177L100.785 109.757L100.797 114.408L102.915 113.092V110.967L105.115 109.644L107.316 110.967Z" fill="#FFCC00"/>
<path d="M109.729 114.949L107.018 113.261V111.139L105.113 109.985L103.21 111.129V113.251L100.499 114.939L100.484 109.579L105.113 106.828L109.744 109.588L109.729 114.949ZM107.614 112.925L109.132 113.869V109.926L105.113 107.521L101.083 109.921V113.864L102.601 112.92V110.799L105.113 109.295L107.614 110.799V112.925Z" fill="#FFCC00"/>
<path d="M115.996 106.408V118.528L117.985 119.763V105.301L105.127 97.2642L92.2695 105.301V119.763L94.2584 118.528V106.408L105.127 99.6055L115.996 106.408Z" fill="#FFCC00"/>
<path d="M91.9688 120.301V105.132L105.127 96.9077L118.285 105.132V120.301L115.695 118.692V106.571L105.127 99.9588L94.559 106.571V118.692L91.9688 120.301ZM116.296 118.364L117.684 119.227V105.467L105.115 97.6175L92.5578 105.467V119.222L93.9453 118.359V106.238L105.127 99.249L116.296 106.238V118.364Z" fill="#FFCC00"/>
<path d="M14.7174 65.6451C14.2741 65.23 13.8676 64.7773 13.5024 64.2921C13.149 63.8281 12.82 63.346 12.5166 62.8479C12.211 62.355 11.9399 61.862 11.6811 61.3396C11.4223 60.8171 11.1882 60.3069 10.9763 59.7795C10.8517 59.4781 10.8517 59.1395 10.9763 58.8381C11.4113 57.8115 11.9298 56.8224 12.5265 55.8806C12.8321 55.4099 13.1549 54.9441 13.5123 54.4955C13.874 54.031 14.2756 53.5988 14.7125 53.2041C14.7304 53.7933 14.6966 54.383 14.6115 54.9663C14.5335 55.5274 14.4274 56.0843 14.2935 56.6348C14.0295 57.7149 13.6775 58.7716 13.2412 59.7943V58.843C13.4581 59.3704 13.6602 59.9052 13.8376 60.4474C14.015 60.9896 14.1752 61.5441 14.3034 62.1085C14.4383 62.6777 14.5436 63.2536 14.6189 63.8337C14.704 64.4335 14.737 65.0396 14.7174 65.6451Z" fill="#F2895A"/>
<path d="M102.372 23.1149C101.832 22.7461 101.324 22.3339 100.851 21.8826C100.383 21.4439 99.9492 20.983 99.5327 20.5123C99.1162 20.0416 98.7169 19.5364 98.3522 19.0434C97.9874 18.5505 97.6128 18.033 97.285 17.5105C97.1551 17.3106 97.0859 17.0773 97.0859 16.8389C97.0859 16.6005 97.1551 16.3672 97.285 16.1673C97.6227 15.6547 97.9776 15.1495 98.3522 14.6615C98.7268 14.1735 99.1187 13.6905 99.5327 13.2271C99.9467 12.7638 100.383 12.3152 100.849 11.8839C101.322 11.4408 101.83 11.0354 102.367 10.6714C102.247 11.3092 102.077 11.9364 101.857 12.5469C101.647 13.1458 101.408 13.7225 101.149 14.2893C100.891 14.8562 100.605 15.4033 100.304 15.9406C100.003 16.4779 99.683 17.0053 99.3454 17.5204V16.1747C99.683 16.6972 100.006 17.2295 100.304 17.7767C100.602 18.3238 100.891 18.8783 101.149 19.4526C101.408 20.0268 101.642 20.6109 101.857 21.2172C102.078 21.8351 102.251 22.4697 102.372 23.1149Z" fill="#F2895A"/>
<path d="M190.31 61.5939C190.052 61.2985 189.811 60.9882 189.588 60.6648C189.369 60.3493 189.157 60.0289 188.96 59.7036C188.763 59.3783 188.575 59.0505 188.398 58.7178C188.22 58.3851 188.05 58.0524 187.883 57.7172C187.808 57.5639 187.792 57.3885 187.838 57.2243L187.91 56.9778C188.075 56.4135 188.257 55.854 188.452 55.3019C188.647 54.7499 188.866 54.2077 189.095 53.6704C189.325 53.1331 189.566 52.6008 189.835 52.0759C190.103 51.5509 190.374 51.0333 190.673 50.5257L190.801 50.3038C190.881 50.1672 191 50.057 191.142 49.987C191.285 49.9169 191.444 49.89 191.602 49.9095C191.957 49.9514 192.309 50.0081 192.664 50.0673C193.019 50.1264 193.371 50.1979 193.724 50.2792C194.448 50.4337 195.157 50.648 195.846 50.92C195.157 51.1908 194.447 51.4051 193.724 51.5608C193.371 51.6421 193.016 51.7086 192.664 51.7727C192.312 51.8368 191.957 51.8861 191.602 51.9304L192.533 51.3143C192.376 51.8812 192.193 52.4381 192.004 52.9927C191.814 53.5472 191.597 54.0919 191.37 54.6291C191.143 55.1664 190.902 55.7012 190.646 56.2261C190.389 56.7511 190.113 57.2711 189.822 57.7837L189.85 57.0444C189.923 57.4116 190 57.7837 190.059 58.1485C190.118 58.5132 190.177 58.8879 190.219 59.2723C190.261 59.6568 190.293 60.0314 190.315 60.4159C190.334 60.8084 190.332 61.2016 190.31 61.5939Z" fill="#F2895A"/>
<path d="M143.636 117.052C143.23 116.67 142.848 116.271 142.483 115.864C142.118 115.458 141.766 115.041 141.426 114.62C141.086 114.198 140.753 113.769 140.44 113.336C140.127 112.902 139.804 112.468 139.503 112.022C139.42 111.901 139.368 111.761 139.35 111.615C139.333 111.469 139.351 111.322 139.402 111.184L139.464 111.021C139.686 110.442 139.925 109.87 140.166 109.296C140.408 108.722 140.659 108.165 140.93 107.605C141.201 107.046 141.47 106.494 141.749 105.942L142.18 105.119L142.626 104.305L142.69 104.187C142.783 104.019 142.922 103.88 143.091 103.787C143.26 103.695 143.452 103.652 143.644 103.665C144.245 103.704 144.844 103.748 145.445 103.813C146.047 103.877 146.646 103.946 147.244 104.034C147.843 104.123 148.445 104.224 149.046 104.347C149.647 104.471 150.246 104.614 150.845 104.796C150.246 104.978 149.645 105.121 149.046 105.242C148.447 105.363 147.846 105.469 147.244 105.555C146.643 105.641 146.044 105.72 145.445 105.777C144.846 105.833 144.245 105.885 143.644 105.925L144.664 105.284L144.302 106.146L143.93 106.997C143.671 107.559 143.415 108.123 143.139 108.675C142.862 109.227 142.584 109.782 142.296 110.329C142.007 110.876 141.707 111.416 141.391 111.95L141.354 110.95C141.601 111.443 141.808 111.936 142.022 112.429C142.236 112.922 142.444 113.414 142.638 113.93C142.833 114.445 143.018 114.947 143.188 115.467C143.358 115.987 143.511 116.507 143.636 117.052Z" fill="#F2895A"/>
<path d="M59.9162 117.052C59.5071 116.67 59.1251 116.271 58.7603 115.864C58.3955 115.458 58.0431 115.041 57.703 114.62C57.3629 114.198 57.0327 113.769 56.7172 113.336C56.4017 112.902 56.0813 112.468 55.7807 112.022C55.6977 111.901 55.6453 111.761 55.6277 111.615C55.6101 111.47 55.6279 111.322 55.6796 111.184L55.7412 111.021C55.963 110.442 56.2021 109.87 56.4436 109.296C56.6852 108.722 56.9365 108.165 57.2076 107.606C57.4787 107.046 57.7474 106.494 58.0259 105.942L58.4572 105.119L58.9032 104.306L58.9673 104.187C59.0608 104.018 59.2003 103.88 59.3696 103.787C59.5389 103.695 59.731 103.652 59.9236 103.665C60.5224 103.704 61.1238 103.749 61.7227 103.813C62.3216 103.877 62.9229 103.946 63.5218 104.034C64.1207 104.123 64.722 104.224 65.3234 104.347C65.9247 104.471 66.5236 104.614 67.1225 104.796C66.5236 104.978 65.9223 105.121 65.3234 105.242C64.7245 105.363 64.1231 105.469 63.5218 105.555C62.9205 105.641 62.3216 105.72 61.7227 105.777C61.1238 105.834 60.5224 105.885 59.9236 105.925L60.9414 105.284L60.5841 106.142L60.2119 106.992C59.9531 107.554 59.6993 108.118 59.4208 108.67C59.1423 109.222 58.8687 109.777 58.5779 110.324C58.2871 110.871 57.9889 111.411 57.6734 111.946L57.6365 110.945C57.8706 111.438 58.0899 111.931 58.3044 112.424C58.5188 112.917 58.7258 113.41 58.9205 113.925C59.1152 114.44 59.3 114.942 59.4701 115.463C59.6401 115.983 59.7905 116.507 59.9162 117.052Z" fill="#F2895A"/>
<path d="M177.446 163.573H33.531C30.4334 163.573 27.4627 162.342 25.2724 160.152C23.0821 157.962 21.8516 154.991 21.8516 151.893C21.8516 148.796 23.0821 145.825 25.2724 143.635C27.4627 141.444 30.4334 140.214 33.531 140.214H177.446C180.543 140.214 183.514 141.444 185.704 143.635C187.895 145.825 189.125 148.796 189.125 151.893C189.125 154.991 187.895 157.962 185.704 160.152C183.514 162.342 180.543 163.573 177.446 163.573ZM33.531 145.636C32.7093 145.636 31.8956 145.798 31.1364 146.112C30.3772 146.427 29.6874 146.888 29.1063 147.469C28.5253 148.05 28.0643 148.74 27.7499 149.499C27.4354 150.258 27.2736 151.072 27.2736 151.893C27.2736 152.715 27.4354 153.529 27.7499 154.288C28.0643 155.047 28.5253 155.737 29.1063 156.318C29.6874 156.899 30.3772 157.36 31.1364 157.675C31.8956 157.989 32.7093 158.151 33.531 158.151H177.446C179.105 158.151 180.697 157.492 181.87 156.318C183.044 155.145 183.703 153.553 183.703 151.893C183.703 150.234 183.044 148.642 181.87 147.469C180.697 146.295 179.105 145.636 177.446 145.636H33.531Z" fill="#572721"/>
<path d="M177.277 145.364H33.5376C32.9744 145.364 32.4285 145.169 31.9927 144.812C31.5569 144.456 31.258 143.959 31.147 143.407L17.698 76.5044L11.3173 76.8889C10.8543 76.9162 10.3931 76.8111 9.9876 76.5859C9.58215 76.3607 9.2492 76.0247 9.0277 75.6172L1.21755 61.2144C1.0475 60.9014 0.948125 60.5549 0.926409 60.1994C0.904693 59.8438 0.96117 59.4878 1.09186 59.1565L7.11521 43.9182C7.28572 43.4864 7.57601 43.1122 7.95193 42.8398C8.32784 42.5674 8.77375 42.408 9.23718 42.3803L23.0707 41.5448C23.5337 41.5172 23.995 41.6222 24.4005 41.8474C24.8061 42.0727 25.139 42.4088 25.3602 42.8165L33.163 57.2218C33.3333 57.5348 33.4326 57.8814 33.4539 58.237C33.4752 58.5927 33.4179 58.9487 33.2862 59.2797L28.4138 71.6024C36.3422 79.107 49.1825 86.8752 67.0036 84.1075C75.9056 82.72 83.5161 76.1692 89.6503 64.6376C93.8277 56.7708 97.3298 46.4222 99.8388 34.5702H96.9207C96.4931 34.5706 96.0729 34.4582 95.7026 34.2445C95.3322 34.0308 95.0247 33.7231 94.8111 33.3527L86.2369 18.5038C86.0237 18.133 85.9115 17.7128 85.9115 17.2851C85.9115 16.8574 86.0237 16.4372 86.2369 16.0664L94.8111 1.21749C95.0247 0.847023 95.3322 0.539415 95.7026 0.325669C96.0729 0.111923 96.4931 -0.000407967 96.9207 1.11334e-06H114.067C114.494 -0.000407967 114.914 0.111923 115.285 0.325669C115.655 0.539415 115.963 0.847023 116.176 1.21749L124.75 16.0664C124.965 16.4367 125.078 16.8571 125.078 17.2851C125.078 17.713 124.965 18.1334 124.75 18.5038L116.176 33.3379C115.963 33.7084 115.655 34.016 115.285 34.2297C114.914 34.4435 114.494 34.5558 114.067 34.5554H110.976C113.485 46.4 116.987 56.7511 121.164 64.6376C127.291 76.1766 134.909 82.7274 143.811 84.1075C158.441 86.3848 171.079 82.0077 182.401 70.7349L176.962 56.9704C176.83 56.6394 176.773 56.2834 176.794 55.9277C176.815 55.5721 176.915 55.2255 177.085 54.9125L184.895 40.5073C185.116 40.0996 185.449 39.7634 185.855 39.5382C186.26 39.3129 186.722 39.208 187.185 39.2356L201.018 40.071C201.481 40.0988 201.927 40.2579 202.303 40.5299C202.678 40.8018 202.969 41.1753 203.14 41.6064L209.163 56.8472C209.294 57.1781 209.351 57.5337 209.329 57.8889C209.307 58.244 209.208 58.5901 209.038 58.9026L201.228 73.3079C201.007 73.7158 200.674 74.0521 200.268 74.2774C199.863 74.5026 199.401 74.6075 198.938 74.5796L193.57 74.2493L179.668 143.404C179.557 143.957 179.259 144.454 178.823 144.812C178.387 145.169 177.841 145.364 177.277 145.364ZM35.5339 140.489H175.274L189.201 71.2106C189.316 70.6335 189.637 70.1178 190.103 69.7586C190.569 69.3994 191.149 69.2209 191.737 69.2562L197.674 69.616L204.202 57.5742L199.167 44.8375L188.442 44.1819L181.913 56.2212L187.517 70.4022C187.689 70.8362 187.732 71.3102 187.642 71.768C187.552 72.2259 187.333 72.6483 187.01 72.985C181.639 78.5845 176.099 82.6485 170.076 85.4137C161.763 89.2288 152.674 90.4044 143.062 88.9085C132.561 87.2745 123.745 79.871 116.859 66.9025C112.053 57.8503 108.265 46.3014 105.603 32.5739C105.535 32.221 105.546 31.8573 105.634 31.5089C105.723 31.1605 105.887 30.836 106.116 30.5587C106.345 30.2813 106.632 30.0578 106.957 29.9043C107.282 29.7508 107.637 29.671 107.996 29.6707H112.659L119.824 17.2592L112.659 4.85023H98.328L91.1636 17.2691L98.328 29.6805H102.818C103.178 29.6809 103.533 29.7607 103.858 29.9142C104.183 30.0677 104.47 30.2911 104.699 30.5685C104.927 30.8459 105.092 31.1704 105.181 31.5188C105.269 31.8672 105.28 32.2308 105.211 32.5837C102.55 46.3113 98.7618 57.8601 93.9559 66.9124C87.07 79.8808 78.2543 87.2843 67.7529 88.9183C47.0359 92.1419 32.4236 82.5573 23.8322 73.9462C23.4964 73.6103 23.2662 73.1836 23.1699 72.7186C23.0735 72.2535 23.1153 71.7705 23.29 71.3289L28.3423 58.5453L21.8261 46.506L11.0905 47.1517L6.05299 59.8909L12.5816 71.9302L19.5291 71.5112C20.1164 71.4748 20.697 71.6525 21.1633 72.0114C21.6296 72.3703 21.95 72.8861 22.0651 73.4632L35.5339 140.489Z" fill="#572721"/>
</svg>
