<svg width="57" height="37" viewBox="0 0 57 37" fill="none" xmlns="http://www.w3.org/2000/svg">
<path d="M21.6842 0.756348H14.8352L11.4102 6.68782L14.8352 12.6193H21.6842L25.1093 6.68782L21.6842 0.756348Z" fill="#FDC102"/>
<path d="M21.6842 12.6191H14.8352L11.4102 18.5512L14.8352 24.4827H21.6842L25.1093 18.5512L21.6842 12.6191Z" fill="#FFA837"/>
<path d="M21.6842 24.4829H14.8352L11.4102 30.415L14.8352 36.3465H21.6842L25.1093 30.415L21.6842 24.4829Z" fill="#FDC102"/>
<path d="M42.3326 24.4829H35.4837L32.0586 30.415L35.4837 36.3465H42.3326L45.7571 30.415L42.3326 24.4829Z" fill="#FDC102"/>
<path d="M42.3326 0.756348H35.4837L32.0586 6.68782L35.4837 12.6193H42.3326L45.7571 6.68782L42.3326 0.756348Z" fill="#FFA837"/>
<path d="M42.3326 12.6191H35.4837L32.0586 18.5512L35.4837 24.4827H42.3326L45.7571 18.5512L42.3326 12.6191Z" fill="#F69210"/>
<path d="M31.8756 6.68799H25.026L21.6016 12.6195L25.026 18.5515H31.8756L35.3001 12.6195L31.8756 6.68799Z" fill="#FDC102"/>
<path d="M31.8756 18.5513H25.026L21.6016 24.4827L25.026 30.4148H31.8756L35.3001 24.4827L31.8756 18.5513Z" fill="#F69210"/>
<path d="M52.5592 18.5513H45.7102L42.2852 24.4827L45.7102 30.4148H52.5592L55.9843 24.4827L52.5592 18.5513Z" fill="#FFA837"/>
<path d="M11.4342 6.68799H4.58464L1.16016 12.6195L4.58464 18.5515H11.4342L14.8587 12.6195L11.4342 6.68799Z" fill="#F69210"/>
<path d="M11.4342 18.5513H4.58464L1.16016 24.4827L4.58464 30.4148H11.4342L14.8587 24.4827L11.4342 18.5513Z" fill="#FFA837"/>
<path d="M10.4295 8.42676H5.58868L3.16797 12.6193L5.58868 16.8124H10.4295L12.8502 12.6193L10.4295 8.42676Z" fill="#E88610"/>
<path d="M20.7153 2.49561H15.8738L13.4531 6.6881L15.8738 10.8806H20.7153L23.136 6.6881L20.7153 2.49561Z" fill="#E88610"/>
<path d="M10.4295 20.2905H5.58868L3.16797 24.483L5.58868 28.6755H10.4295L12.8502 24.483L10.4295 20.2905Z" fill="#E88610"/>
<path d="M30.9926 8.42676H26.1512L23.7305 12.6193L26.1512 16.8124H30.9926L33.4127 12.6193L30.9926 8.42676Z" fill="#E88610"/>
<path d="M30.9926 20.2905H26.1512L23.7305 24.483L26.1512 28.6755H30.9926L33.4127 24.483L30.9926 20.2905Z" fill="#E88610"/>
<path d="M51.5551 20.2905H46.7137L44.293 24.483L46.7137 28.6755H51.5551L53.9758 24.483L51.5551 20.2905Z" fill="#E88610"/>
<path d="M20.6795 14.3589H15.8381L13.418 18.5514L15.8381 22.7439H20.6795L23.1002 18.5514L20.6795 14.3589Z" fill="#E88610"/>
<path d="M20.6795 26.2217H15.8381L13.418 30.4148L15.8381 34.6073H20.6795L23.1002 30.4148L20.6795 26.2217Z" fill="#E88610"/>
<path d="M41.3475 2.49561H36.5066L34.0859 6.6881L36.5066 10.8806H41.3475L43.7682 6.6881L41.3475 2.49561Z" fill="#E88610"/>
<path d="M41.3123 14.3589H36.4715L34.0508 18.5514L36.4715 22.7439H41.3123L43.733 18.5514L41.3123 14.3589Z" fill="#E88610"/>
<path d="M41.3123 26.2217H36.4715L34.0508 30.4148L36.4715 34.6073H41.3123L43.733 30.4148L41.3123 26.2217Z" fill="#E88610"/>
<path d="M22.017 13.1966H14.5009L10.7422 6.68789L14.5009 0.176758H22.017L25.775 6.68546L22.017 13.1966ZM15.1674 12.0421H21.3504L24.4419 6.68789L21.3504 1.33121H15.1674L12.0789 6.68789L15.1674 12.0421Z" fill="#572721"/>
<path d="M22.017 25.06H14.5009L10.7422 18.5513L14.5002 12.042H22.0164L25.7744 18.5513L22.017 25.06ZM15.1674 23.9055H21.3504L24.4419 18.5513L21.3504 13.1964H15.1674L12.0789 18.5513L15.1674 23.9055Z" fill="#572721"/>
<path d="M22.017 36.9238H14.5009L10.7422 30.4151L14.5002 23.9058H22.0164L25.7744 30.4151L22.017 36.9238ZM15.1674 35.7693H21.3504L24.4419 30.4151L21.3504 25.0602H15.1674L12.0789 30.4151L15.1674 35.7693Z" fill="#572721"/>
<path d="M42.6687 36.9238H35.1526L31.3945 30.4151L35.1526 23.9058H42.6687L46.4268 30.4151L42.6687 36.9238ZM35.8191 35.7693H42.0022L45.0937 30.4151L42.0022 25.0602H35.8191L32.7276 30.4151L35.8191 35.7693Z" fill="#572721"/>
<path d="M42.6687 13.1966H35.1526L31.3945 6.68789L35.1526 0.176758H42.6687L46.4268 6.68546L42.6687 13.1966ZM35.8191 12.0421H42.0022L45.0937 6.68789L42.0022 1.33121H35.8191L32.7276 6.68546L35.8191 12.0421Z" fill="#572721"/>
<path d="M42.6687 25.06H35.1526L31.3945 18.5513L35.1526 12.042H42.6687L46.4268 18.5513L42.6687 25.06ZM35.8191 23.9055H42.0022L45.0937 18.5513L42.0022 13.1964H35.8191L32.7276 18.5513L35.8191 23.9055Z" fill="#572721"/>
<path d="M32.2072 19.1288H24.6916L20.9336 12.6195L24.6916 6.11084H32.2072L35.9652 12.6195L32.2072 19.1288ZM25.3582 17.9744H31.5406L34.6321 12.6195L31.5406 7.2653H25.3582L22.2667 12.6195L25.3582 17.9744Z" fill="#572721"/>
<path d="M32.2072 30.992H24.6916L20.9336 24.4809L24.6916 17.9722H32.2072L35.9652 24.4809L32.2072 30.992ZM25.3582 29.8375H31.5406L34.6321 24.4809L31.5406 19.1284H25.3582L22.2667 24.4809L25.3582 29.8375Z" fill="#572721"/>
<path d="M52.8953 30.9921H45.3785L41.6211 24.481L45.3785 17.9741H52.8947L56.6533 24.481L52.8953 30.9921ZM46.0469 29.8377H52.2287L55.3202 24.481L52.2287 19.1268H46.0469L42.9542 24.481L46.0469 29.8377Z" fill="#572721"/>
<path d="M11.7657 19.1288H4.25024L0.492188 12.6195L4.25024 6.11084H11.7657L15.5238 12.6195L11.7657 19.1288ZM4.91679 17.9744H11.0992L14.1907 12.6195L11.0992 7.2653H4.91679L1.82528 12.6195L4.91679 17.9744Z" fill="#572721"/>
<path d="M11.7657 30.992H4.25024L0.492188 24.4809L4.25024 17.9722H11.7657L15.5238 24.4809L11.7657 30.992ZM4.91679 29.8375H11.0992L14.1907 24.4809L11.0992 19.1266H4.91679L1.82528 24.4809L4.91679 29.8375Z" fill="#572721"/>
<path d="M7.32104 9.21191C7.15759 9.40513 7.00386 9.58316 6.85622 9.76301C6.70857 9.94287 6.56699 10.1172 6.43089 10.2928C6.16826 10.6337 5.92912 10.992 5.71513 11.3653C5.61183 11.5476 5.51826 11.7371 5.42834 11.9297C5.33841 12.1224 5.26367 12.3217 5.18529 12.5258C5.16828 12.5775 5.15005 12.6291 5.13243 12.6814L5.10387 12.7603L5.07957 12.8399C5.06256 12.8934 5.04494 12.9469 5.02671 13.001L4.97871 13.1656C4.94164 13.2756 4.91795 13.3892 4.88088 13.5041C4.84382 13.6189 4.82012 13.7374 4.77637 13.8595C4.66032 13.6356 4.5784 13.3956 4.53333 13.1474C4.52239 13.0866 4.51206 13.0259 4.50234 12.9609C4.49262 12.8958 4.4908 12.8351 4.48654 12.7719L4.48047 12.6765V12.5811C4.48047 12.5203 4.48047 12.4535 4.48472 12.3897C4.50206 12.1328 4.54812 11.8787 4.62204 11.632C4.69723 11.3845 4.7991 11.146 4.92585 10.9205C5.17921 10.474 5.5237 10.0859 5.93691 9.78124C6.14025 9.63241 6.35953 9.50667 6.59069 9.40635C6.70601 9.3565 6.82456 9.31447 6.94553 9.28057C7.0678 9.24397 7.19373 9.22095 7.32104 9.21191Z" fill="#FFCB8D"/>
<path d="M7.32104 21.1265C7.15759 21.3203 7.00386 21.4977 6.85622 21.6782C6.70857 21.8586 6.56699 22.0324 6.43089 22.208C6.16826 22.5486 5.92912 22.9067 5.71513 23.2798C5.61183 23.4621 5.51826 23.6523 5.42834 23.8443C5.33841 24.0363 5.26367 24.2362 5.18529 24.441C5.16828 24.4926 5.15005 24.5443 5.13243 24.5965L5.10387 24.6749L5.07957 24.7545C5.06256 24.808 5.04494 24.8614 5.02671 24.9155L4.97871 25.0802C4.94164 25.1908 4.91795 25.3038 4.88088 25.4192C4.84382 25.5347 4.82012 25.6525 4.77637 25.7741C4.66041 25.5503 4.57849 25.3105 4.53333 25.0626C4.52239 25.0018 4.51206 24.938 4.50234 24.8754C4.49262 24.8128 4.4908 24.7496 4.48654 24.6864L4.48047 24.591V24.4957C4.48047 24.4349 4.48047 24.3687 4.48472 24.3043C4.50206 24.0474 4.54812 23.7932 4.62204 23.5466C4.69735 23.2991 4.79921 23.0606 4.92585 22.8351C5.17908 22.3887 5.52359 22.0007 5.93691 21.6964C6.14125 21.5471 6.36179 21.4214 6.59434 21.3215C6.70954 21.2712 6.82811 21.229 6.94918 21.1951C7.07041 21.1594 7.19503 21.1364 7.32104 21.1265Z" fill="#FFCB8D"/>
<path d="M48.5978 21.1265C48.4343 21.3203 48.28 21.4977 48.1323 21.6782C47.9847 21.8586 47.8437 22.0324 47.707 22.208C47.4446 22.5488 47.2055 22.9069 46.9913 23.2798C46.888 23.4621 46.7944 23.6523 46.7051 23.8443C46.6158 24.0363 46.5404 24.2362 46.462 24.441C46.4456 24.4926 46.4274 24.5443 46.4092 24.5965L46.3806 24.6749L46.3563 24.7545C46.3399 24.808 46.3223 24.8614 46.3034 24.9155L46.2561 25.0802C46.2184 25.1908 46.1953 25.3038 46.1576 25.4192C46.1199 25.5347 46.0969 25.6525 46.0537 25.7741C45.9375 25.5504 45.8556 25.3106 45.8107 25.0626C45.7997 25.0018 45.7894 24.938 45.7797 24.8754C45.77 24.8128 45.7681 24.7496 45.7639 24.6864L45.7578 24.591V24.4957C45.7578 24.4349 45.7578 24.3687 45.7621 24.3043C45.7795 24.0474 45.8253 23.7933 45.8988 23.5466C46.1254 22.8035 46.5873 22.1542 47.2149 21.6964C47.4179 21.5471 47.6372 21.4213 47.8686 21.3215C47.9836 21.2712 48.102 21.229 48.2229 21.1951C48.3451 21.1591 48.4707 21.1361 48.5978 21.1265Z" fill="#FFCB8D"/>
<path d="M27.946 9.21191C27.7826 9.40513 27.6283 9.58316 27.4806 9.76301C27.333 9.94287 27.192 10.1172 27.0553 10.2928C26.7924 10.6335 26.5533 10.9919 26.3395 11.3653C26.2362 11.5476 26.1427 11.7371 26.0527 11.9297C25.9628 12.1224 25.8881 12.3217 25.8097 12.5258C25.7933 12.5775 25.7751 12.6291 25.7568 12.6814L25.7289 12.7603L25.704 12.8399C25.6876 12.8934 25.6699 12.9469 25.6511 13.001L25.6037 13.1656C25.566 13.2756 25.5429 13.3892 25.5053 13.5041C25.4676 13.6189 25.4445 13.7374 25.4014 13.8595C25.285 13.6357 25.2031 13.3956 25.1583 13.1474C25.1474 13.0866 25.1371 13.0259 25.1273 12.9609C25.1176 12.8958 25.1158 12.8351 25.1115 12.7719L25.1055 12.6765V12.5811C25.1055 12.5203 25.1055 12.4535 25.1097 12.3897C25.1271 12.1329 25.173 11.8788 25.2464 11.632C25.4733 10.8889 25.9351 10.2395 26.5625 9.78124C26.7657 9.63216 26.985 9.5064 27.2163 9.40635C27.3314 9.35659 27.4498 9.31457 27.5705 9.28057C27.6928 9.24401 27.8187 9.22099 27.946 9.21191Z" fill="#FFCB8D"/>
<path d="M27.946 20.8159C27.7826 21.0097 27.6283 21.1878 27.4806 21.3676C27.333 21.5475 27.192 21.7219 27.0553 21.8975C26.7925 22.2379 26.5533 22.5961 26.3395 22.9693C26.2362 23.1516 26.1427 23.3417 26.0527 23.5337C25.9628 23.7258 25.8881 23.9257 25.8097 24.1304C25.7933 24.1821 25.7751 24.2337 25.7568 24.286L25.7289 24.3644L25.704 24.4439C25.6876 24.4974 25.6699 24.5509 25.6511 24.605L25.6037 24.7696C25.566 24.8802 25.5429 24.9932 25.5053 25.1087C25.4676 25.2241 25.4445 25.342 25.4014 25.4641C25.2852 25.2402 25.2033 25.0002 25.1583 24.752C25.1474 24.6912 25.1371 24.6305 25.1273 24.5649C25.1176 24.4992 25.1158 24.4391 25.1115 24.3759L25.1055 24.2805V24.1857C25.1055 24.125 25.1055 24.0581 25.1097 23.9937C25.1271 23.7371 25.173 23.4831 25.2464 23.2366C25.473 22.4934 25.9348 21.8439 26.5625 21.3859C26.7656 21.2366 26.9849 21.1108 27.2163 21.011C27.3313 20.9607 27.4497 20.9185 27.5705 20.8846C27.693 20.8486 27.8188 20.8256 27.946 20.8159Z" fill="#FFCB8D"/>
<path d="M17.6936 3.38135C17.5302 3.57517 17.3764 3.7526 17.2288 3.93306C17.0811 4.11352 16.9402 4.28729 16.8035 4.46289C16.5415 4.80357 16.3029 5.16167 16.0895 5.53471C15.9862 5.71699 15.8927 5.90718 15.8033 6.09918C15.714 6.29118 15.6381 6.49109 15.5603 6.69585C15.5433 6.7475 15.5251 6.79914 15.5074 6.8514L15.4789 6.92978L15.4546 7.00938C15.4382 7.06285 15.4205 7.11632 15.4017 7.17039L15.3537 7.33505C15.3166 7.44564 15.2929 7.55866 15.2559 7.6741C15.2188 7.78955 15.1951 7.90742 15.1514 8.02894C15.0354 7.80519 14.9535 7.56537 14.9083 7.31743C14.8974 7.25667 14.8877 7.19591 14.8779 7.13029C14.8682 7.06467 14.8658 7.00451 14.8615 6.94132L14.8555 6.84593V6.75054C14.8555 6.68977 14.8555 6.62355 14.8597 6.55914C14.8767 6.30229 14.9223 6.04814 14.9958 5.80145C15.0711 5.55402 15.173 5.31546 15.2996 5.08994C15.5529 4.64339 15.8977 4.25537 16.3113 3.95128C16.5151 3.80301 16.735 3.67826 16.9669 3.57943C17.0821 3.52911 17.2007 3.48688 17.3217 3.45305C17.4429 3.41626 17.5675 3.39223 17.6936 3.38135Z" fill="#FFCB8D"/>
<path d="M18.0223 15.0024C17.8589 15.1963 17.7046 15.3737 17.5569 15.5542C17.4093 15.7346 17.2683 15.9084 17.1316 16.084C16.8692 16.4248 16.63 16.7828 16.4158 17.1558C16.3125 17.3381 16.2196 17.5283 16.1296 17.7203C16.0397 17.9123 15.965 18.1122 15.8866 18.3169C15.8702 18.3686 15.852 18.4202 15.8337 18.4725L15.8052 18.5509L15.7809 18.6305C15.7645 18.6839 15.7468 18.7374 15.728 18.7915L15.6818 18.9519C15.6442 19.0625 15.6211 19.1755 15.5834 19.2909C15.5457 19.4064 15.5226 19.5243 15.4795 19.6458C15.3633 19.4221 15.2813 19.1823 15.2365 18.9343C15.2255 18.8735 15.2152 18.8128 15.2055 18.7471C15.1957 18.6815 15.1939 18.6214 15.1897 18.5582L15.1836 18.4628V18.3674C15.1836 18.3066 15.1836 18.2404 15.1878 18.176C15.2052 17.9193 15.2511 17.6654 15.3246 17.4189C15.5511 16.6757 16.013 16.0261 16.6406 15.5681C16.8437 15.4188 17.063 15.2931 17.2944 15.1932C17.4095 15.143 17.5278 15.1008 17.6487 15.0668C17.7706 15.0324 17.8959 15.0109 18.0223 15.0024Z" fill="#FFCB8D"/>
<path d="M17.6936 27.0068C17.5302 27.2001 17.3764 27.3781 17.2288 27.5579C17.0811 27.7378 16.9402 27.9122 16.8035 28.0878C16.5416 28.4285 16.3031 28.7866 16.0895 29.1596C15.9862 29.3419 15.8927 29.5321 15.8033 29.7241C15.714 29.9161 15.6381 30.1166 15.5603 30.3207C15.5433 30.3724 15.5251 30.424 15.5074 30.4763L15.4789 30.5547L15.4546 30.6343C15.4382 30.6877 15.4205 30.7418 15.4017 30.7953L15.3537 30.9599C15.3166 31.0705 15.2929 31.1835 15.2559 31.299C15.2188 31.4144 15.1951 31.5323 15.1514 31.6544C15.0354 31.4305 14.9535 31.1904 14.9083 30.9423C14.8974 30.8816 14.8877 30.8208 14.8779 30.7552C14.8682 30.6895 14.8658 30.63 14.8615 30.5662L14.8555 30.4708V30.3748C14.8555 30.314 14.8555 30.2472 14.8597 30.1834C14.8768 29.927 14.9224 29.6732 14.9958 29.4269C15.071 29.1795 15.1729 28.9409 15.2996 28.7154C15.5528 28.2687 15.8976 27.8804 16.3113 27.5762C16.5143 27.4272 16.7334 27.3015 16.9645 27.2013C17.0799 27.1515 17.1984 27.1093 17.3193 27.0749C17.4413 27.0389 17.5668 27.016 17.6936 27.0068Z" fill="#FFCB8D"/>
<path d="M38.4617 3.38135C38.2982 3.57517 38.1445 3.7526 37.9968 3.93306C37.8492 4.11352 37.7076 4.28729 37.5715 4.46289C37.3089 4.80351 37.0697 5.16161 36.8558 5.53471C36.7525 5.71699 36.6589 5.90718 36.569 6.09918C36.479 6.29118 36.4043 6.49109 36.3259 6.69585C36.3089 6.7475 36.2907 6.79914 36.2725 6.8514L36.2445 6.92978L36.2196 7.00938C36.2032 7.06285 36.1856 7.11632 36.1673 7.17039L36.1193 7.33505C36.0823 7.44564 36.0586 7.55866 36.0215 7.6741C35.9844 7.78955 35.9608 7.90742 35.917 8.02894C35.801 7.80519 35.7191 7.56537 35.674 7.31743C35.663 7.25667 35.6527 7.19591 35.643 7.13029C35.6332 7.06467 35.6314 7.00451 35.6272 6.94132L35.6211 6.84593V6.75054C35.6211 6.68977 35.6211 6.62355 35.6253 6.55914C35.6427 6.30224 35.6887 6.0481 35.7627 5.80145C35.838 5.55402 35.9398 5.31546 36.0665 5.08994C36.3197 4.64354 36.6642 4.25554 37.0775 3.95128C37.2819 3.80293 37.5025 3.67818 37.735 3.57943C37.85 3.52921 37.9684 3.48698 38.0892 3.45305C38.2105 3.41626 38.3354 3.39223 38.4617 3.38135Z" fill="#FFCB8D"/>
<path d="M38.4617 15.0024C38.2982 15.1963 38.1445 15.3737 37.9968 15.5542C37.8492 15.7346 37.7076 15.9084 37.5715 16.084C37.3089 16.4246 37.0697 16.7827 36.8558 17.1558C36.7525 17.3381 36.6589 17.5283 36.569 17.7203C36.479 17.9123 36.4043 18.1122 36.3259 18.3169C36.3089 18.3686 36.2907 18.4202 36.2725 18.4725L36.2445 18.5509L36.2196 18.6305C36.2032 18.6839 36.1856 18.7374 36.1673 18.7915L36.1193 18.9561C36.0823 19.0667 36.0586 19.1797 36.0215 19.2952C35.9844 19.4106 35.9608 19.5285 35.917 19.65C35.801 19.4263 35.7191 19.1865 35.674 18.9385C35.663 18.8778 35.6527 18.817 35.643 18.7514C35.6332 18.6858 35.6314 18.6256 35.6272 18.5624L35.6211 18.467V18.3716C35.6211 18.3109 35.6211 18.2446 35.6253 18.1802C35.6426 17.9235 35.6887 17.6696 35.7627 17.4232C35.8379 17.1755 35.9397 16.9367 36.0665 16.711C36.3197 16.2646 36.6642 15.8766 37.0775 15.5724C37.2807 15.4232 37.5 15.2974 37.7313 15.1975C37.8469 15.1466 37.9659 15.1037 38.0874 15.0693C38.2095 15.034 38.3349 15.0116 38.4617 15.0024Z" fill="#FFCB8D"/>
<path d="M38.4617 26.6196C38.2982 26.8135 38.1445 26.9909 37.9968 27.1713C37.8492 27.3518 37.7076 27.5256 37.5715 27.7012C37.3089 28.0418 37.0697 28.3999 36.8558 28.773C36.7525 28.9553 36.6589 29.1455 36.569 29.3375C36.479 29.5295 36.4043 29.7294 36.3259 29.9341C36.3089 29.9858 36.2907 30.0374 36.2725 30.0897L36.2445 30.1681L36.2196 30.2477C36.2032 30.3011 36.1856 30.3546 36.1673 30.4087L36.1193 30.5733C36.0823 30.6839 36.0586 30.7969 36.0215 30.9124C35.9844 31.0278 35.9608 31.1457 35.917 31.2672C35.801 31.0435 35.7191 30.8037 35.674 30.5557C35.663 30.495 35.6527 30.4312 35.643 30.3686C35.6332 30.306 35.6314 30.2428 35.6272 30.1796L35.6211 30.0842V29.9888C35.6211 29.9281 35.6211 29.8618 35.6253 29.7974C35.6434 29.5398 35.6905 29.285 35.7657 29.0379C35.8409 28.7902 35.9428 28.5515 36.0695 28.3258C36.3227 27.8794 36.6673 27.4914 37.0806 27.1871C37.2837 27.038 37.503 26.9122 37.7344 26.8122C37.8494 26.762 37.9677 26.7198 38.0886 26.6859C38.2103 26.6509 38.3353 26.6287 38.4617 26.6196Z" fill="#FFCB8D"/>
</svg>
