<svg width="43" height="48" viewBox="0 0 43 48" fill="none" xmlns="http://www.w3.org/2000/svg">
<path d="M38.1939 33.6475V13.9939L21.0493 4.16895L3.87109 13.9939V33.6475L21.0343 43.4762L38.1939 33.6475ZM6.14089 33.1744C5.92158 33.0501 5.73943 32.8704 5.61306 32.6535C5.48669 32.4366 5.42061 32.1903 5.42157 31.9398V15.7053C5.42099 15.4549 5.48724 15.2088 5.61357 14.992C5.73991 14.7751 5.92183 14.5953 6.14089 14.4707L20.3039 6.33872C20.5226 6.21349 20.7706 6.14756 21.0232 6.14756C21.2757 6.14756 21.5238 6.21349 21.7425 6.33872L35.9055 14.4707C36.124 14.5959 36.3055 14.7758 36.4318 14.9925C36.558 15.2092 36.6246 15.4551 36.6248 15.7053V31.9398C36.625 32.1902 36.5586 32.4361 36.4323 32.6529C36.306 32.8697 36.1243 33.0495 35.9055 33.1744L21.7425 41.3064C21.5232 41.4299 21.2753 41.4948 21.0232 41.4948C20.771 41.4948 20.5232 41.4299 20.3039 41.3064L6.14089 33.1744Z" fill="#FF8A00"/>
<path d="M33.7712 31.1189V16.5256L21.032 9.229L8.28906 16.5256V31.1189L21.032 38.4119L33.7712 31.1189Z" fill="#FF8A00"/>
<path d="M25.5236 22.3327V27.4226L27.0405 28.3578V21.4899L20.8796 17.7344L14.7188 21.4899V28.3578L16.2357 27.4226V22.3327L20.8796 19.5345L25.5236 22.3327Z" fill="#572721"/>
<path d="M27.258 28.7421L25.3125 27.5444V22.4545L20.881 19.7821L16.4532 22.4545V27.5444L14.5039 28.7421V21.3715L20.881 17.4829L27.258 21.3715V28.7421ZM14.9362 21.6081V27.9732L16.0208 27.3042V22.2106L20.8661 19.283L25.7113 22.2106V27.3042L26.7958 27.9732V21.6081L20.8325 17.9856L14.9362 21.6081Z" fill="#572721"/>
<path d="M22.4618 24.0219V25.5374L23.9824 26.4726L23.9936 23.1569L20.8777 21.3198L17.7656 23.1569L17.7731 26.4726L19.2937 25.5374V24.0219L20.8777 23.0793L22.4618 24.0219Z" fill="#572721"/>
<path d="M24.2004 26.8569L22.2475 25.6556V24.1437L20.8796 23.3268L19.5118 24.1437V25.6556L17.5625 26.8569V23.0348L20.8908 21.0684L24.2228 23.0348L24.2004 26.8569ZM22.6798 25.419L23.7681 26.088V23.2788L20.8685 21.5674L17.9688 23.2788V26.088L19.0571 25.419V23.8998L20.8573 22.8278L22.6574 23.8998L22.6798 25.419Z" fill="#572721"/>
<path d="M28.6917 20.7694V29.4116L30.1192 30.2913V19.9784L20.876 14.249L11.6328 19.9784V30.2913L13.064 29.4116V20.7694L20.876 15.9198L28.6917 20.7694Z" fill="#572721"/>
<path d="M11.4219 30.6788V19.8595L20.8812 13.9971L30.3406 19.8595V30.6788L28.477 29.5292V20.8871L20.8812 16.1705L13.2854 20.8871V29.5292L11.4219 30.6788ZM28.9131 29.2853L29.9083 29.8989V20.0998L20.8812 14.4998L11.8542 20.0998V29.9063L12.8531 29.2927V20.6505L20.8812 15.6641L28.9131 20.6505V29.2853Z" fill="#572721"/>
<path d="M21.0357 47.6117C20.6958 47.6121 20.3617 47.5242 20.0667 47.3567L0.969046 36.4191C0.674348 36.2508 0.429586 36.0084 0.259457 35.7164C0.089327 35.4244 -0.000159977 35.093 2.14694e-07 34.7557V12.888C-0.000159977 12.5507 0.089327 12.2194 0.259457 11.9274C0.429586 11.6353 0.674348 11.3929 0.969046 11.2246L20.0667 0.287054C20.3611 0.119756 20.6945 0.0317383 21.0338 0.0317383C21.3732 0.0317383 21.7066 0.119756 22.001 0.287054L41.1024 11.2246C41.3961 11.3937 41.6399 11.6363 41.8093 11.9283C41.9788 12.2202 42.0678 12.5512 42.0677 12.888V34.7557C42.0678 35.0926 41.9788 35.4235 41.8093 35.7155C41.6399 36.0074 41.3961 36.2501 41.1024 36.4191L22.001 47.3567C21.7072 47.5237 21.3744 47.6117 21.0357 47.6117ZM3.87244 33.6468L21.0357 43.4755L38.1803 33.6468V13.9932L21.0357 4.16825L3.87244 13.9932V33.6468Z" fill="#572721"/>
<path d="M21.0352 41.4833C20.783 41.4834 20.5351 41.4184 20.3159 41.2947L6.15293 33.1627C5.93362 33.0385 5.75148 32.8587 5.62511 32.6418C5.49874 32.4249 5.43265 32.1786 5.4336 31.9281V15.7047C5.43303 15.4543 5.49928 15.2082 5.62561 14.9914C5.75195 14.7745 5.93387 14.5947 6.15293 14.4702L20.3159 6.33813C20.5346 6.2129 20.7827 6.14697 21.0352 6.14697C21.2877 6.14697 21.5358 6.2129 21.7545 6.33813L35.9175 14.4702C36.136 14.5953 36.3175 14.7752 36.4438 14.9919C36.5701 15.2086 36.6366 15.4545 36.6368 15.7047V31.9392C36.637 32.1896 36.5706 32.4355 36.4443 32.6523C36.318 32.8691 36.1363 33.049 35.9175 33.1738L21.7545 41.3058C21.5341 41.4253 21.2864 41.4864 21.0352 41.4833ZM8.27738 31.1334L21.0203 38.4301L33.7781 31.1334V16.5253L21.0352 9.22869L8.27738 16.5253V31.1334Z" fill="#572721"/>
</svg>
