<svg width="54" height="52" viewBox="0 0 54 52" fill="none" xmlns="http://www.w3.org/2000/svg">
<path d="M23.5618 13.603H9.24689L2.08984 26.0003L9.24689 38.3975H23.5618L30.7189 26.0003L23.5618 13.603Z" fill="#FFA837"/>
<path d="M44.8548 1.20703H30.5399L23.3828 13.6034L30.5399 26.0006H44.8548L52.0127 13.6034L44.8548 1.20703Z" fill="#FDC102"/>
<path d="M44.8548 26H30.5399L23.3828 38.3972L30.5399 50.7944H44.8548L52.0127 38.3972L44.8548 26Z" fill="#F69210"/>
<path d="M43.0129 4.84082H32.8946L27.8359 13.6032L32.8946 22.3657H43.0129L48.0716 13.6032L43.0129 4.84082Z" fill="#E88610"/>
<path d="M43.0129 29.6348H32.8946L27.8359 38.3972L32.8946 47.1596H43.0129L48.0716 38.3972L43.0129 29.6348Z" fill="#E88610"/>
<path d="M21.4621 17.2378H11.3439L6.28516 26.0002L11.3439 34.7626H21.4621L26.5208 26.0002L21.4621 17.2378Z" fill="#E88610"/>
<path d="M17.1253 29.9598H13.2305V21.7715H17.0319C18.7036 21.7715 19.7366 22.6021 19.7366 23.889V23.9126C19.7366 24.8365 19.2454 25.3504 18.6609 25.6785C19.6084 26.0415 20.1929 26.5911 20.1929 27.6852V27.7097C20.1895 29.2112 18.9732 29.9598 17.1253 29.9598ZM17.9437 24.1926C17.9437 23.6543 17.5231 23.3507 16.7632 23.3507H14.985V25.0826H16.6428C17.4385 25.0826 17.941 24.8208 17.941 24.2162L17.9437 24.1926ZM18.4 27.468C18.4 26.9183 17.9908 26.5789 17.0668 26.5789H14.985V28.3806H17.1253C17.9201 28.3806 18.4 28.0997 18.4 27.4915V27.468Z" fill="#572721"/>
<path d="M16.0091 20.7979H14.3906V22.4163H16.0091V20.7979Z" fill="#572721"/>
<path d="M18.0911 20.7979H16.4727V22.4163H18.0911V20.7979Z" fill="#572721"/>
<path d="M16.056 29.436H14.4375V31.0545H16.056V29.436Z" fill="#572721"/>
<path d="M18.138 29.436H16.5195V31.0545H18.138V29.436Z" fill="#572721"/>
<path d="M38.3705 17.6367H34.4766V9.44922H38.2771C39.9497 9.44922 40.9819 10.2798 40.9819 11.5659V11.5903C40.9819 12.5134 40.4906 13.0282 39.9052 13.3554C40.8536 13.7183 41.4382 14.268 41.4382 15.3673V15.3909C41.4364 16.8881 40.2193 17.6367 38.3705 17.6367ZM39.1898 11.8695C39.1898 11.3321 38.7683 11.0284 38.0084 11.0284H36.2303V12.7594H37.888C38.6828 12.7594 39.1863 12.5021 39.1863 11.8939L39.1898 11.8695ZM39.6461 15.1448C39.6461 14.596 39.236 14.2566 38.312 14.2566H36.2303V16.0575H38.3705C39.1662 16.0575 39.6461 15.7765 39.6461 15.1693V15.1448Z" fill="#572721"/>
<path d="M37.2513 8.47412H35.6328V10.0926H37.2513V8.47412Z" fill="#572721"/>
<path d="M39.3333 8.47412H37.7148V10.0926H39.3333V8.47412Z" fill="#572721"/>
<path d="M37.3021 17.1143H35.6836V18.7327H37.3021V17.1143Z" fill="#572721"/>
<path d="M39.3802 17.1143H37.7617V18.7327H39.3802V17.1143Z" fill="#572721"/>
<path d="M38.3705 42.431H34.4766V34.2427H38.2771C39.9497 34.2427 40.9819 35.0733 40.9819 36.3602V36.3838C40.9819 37.3077 40.4906 37.8216 39.9052 38.1497C40.851 38.5126 41.4364 39.0632 41.4364 40.1608V40.1852C41.4364 41.6807 40.2193 42.431 38.3705 42.431ZM39.1898 36.6638C39.1898 36.1255 38.7683 35.8219 38.0084 35.8219H36.2303V37.5538H37.888C38.6828 37.5538 39.1863 37.292 39.1863 36.6874L39.1898 36.6638ZM39.6461 39.9357C39.6461 39.386 39.236 39.0475 38.312 39.0475H36.2303V40.8518H38.3705C39.1662 40.8518 39.6461 40.5709 39.6461 39.9627V39.9357Z" fill="#572721"/>
<path d="M37.2513 33.269H35.6328V34.8875H37.2513V33.269Z" fill="#572721"/>
<path d="M39.3333 33.269H37.7148V34.8875H39.3333V33.269Z" fill="#572721"/>
<path d="M37.3021 41.9072H35.6836V43.5257H37.3021V41.9072Z" fill="#572721"/>
<path d="M39.3802 41.9072H37.7617V43.5257H39.3802V41.9072Z" fill="#572721"/>
<path d="M24.2565 39.6039H8.55164L0.699219 26L8.55164 12.397H24.2565L32.1089 26L24.2565 39.6039ZM9.94151 37.1905H22.864L29.3248 26L22.864 14.8077H9.94151L3.48072 26L9.94151 37.1905Z" fill="#572721"/>
<path d="M45.5533 27.2069H29.8485L21.9961 13.603L29.8485 0H45.5533L53.4058 13.603L45.5533 27.2069ZM31.2393 24.7936H44.1609L50.6173 13.603L44.1609 2.41244H31.2393L24.7776 13.603L31.2393 24.7936Z" fill="#572721"/>
<path d="M45.5533 52.0003H29.8485L21.9961 38.3973L29.8485 24.7935H45.5533L53.4058 38.3973L45.5533 52.0003ZM31.2393 49.5879H44.1609L50.6173 38.3973L44.1609 27.2068H31.2393L24.7776 38.3973L31.2393 49.5879Z" fill="#572721"/>
<path d="M36.646 6.48096C36.304 6.88579 35.9821 7.25747 35.6741 7.63352C35.3661 8.00956 35.0703 8.37426 34.7885 8.74071C34.2402 9.45306 33.7406 10.2016 33.2931 10.9813C33.0767 11.366 32.8812 11.7595 32.6945 12.1609C32.5078 12.5622 32.3455 12.9801 32.185 13.4077C32.1501 13.5159 32.1126 13.624 32.0751 13.7331L32.0157 13.8971L31.9643 14.0638C31.9294 14.1746 31.8927 14.2871 31.8543 14.3997L31.754 14.7434C31.6763 14.9747 31.6249 15.2111 31.5489 15.4519C31.473 15.6927 31.4216 15.9396 31.3308 16.1944C31.0894 15.7264 30.9192 15.225 30.8257 14.7068C30.803 14.5777 30.782 14.4451 30.7611 14.3159C30.7401 14.1868 30.7367 14.0542 30.7279 13.9207L30.7148 13.7218V13.5228C30.7148 13.3902 30.7148 13.2558 30.7236 13.1224C30.7598 12.5858 30.8558 12.055 31.0097 11.5397C31.168 11.0225 31.3812 10.5238 31.6458 10.0521C32.1759 9.11933 32.8962 8.30842 33.7598 7.67191C34.1844 7.35973 34.6427 7.09633 35.1262 6.88666C35.3671 6.78327 35.6145 6.69583 35.8669 6.62492C36.1208 6.54956 36.382 6.50131 36.646 6.48096Z" fill="#FFCB8D"/>
<path d="M36.646 30.7334C36.304 31.1382 35.9821 31.5099 35.6741 31.886C35.3661 32.262 35.0703 32.6267 34.7885 32.9931C34.2402 33.7055 33.7406 34.4541 33.2931 35.2337C33.0767 35.6185 32.8812 36.012 32.6945 36.4133C32.5078 36.8147 32.3455 37.2326 32.185 37.6601C32.1501 37.7683 32.1126 37.8765 32.0751 37.9855L32.0157 38.1496L31.9643 38.3162C31.9294 38.4279 31.8927 38.5396 31.8543 38.6521L31.754 39.0011C31.6763 39.2315 31.6249 39.4679 31.5489 39.7096C31.473 39.9513 31.4216 40.1964 31.3308 40.4512C31.0894 39.9832 30.9192 39.4818 30.8257 38.9636C30.803 38.8345 30.782 38.7019 30.7611 38.5727C30.7401 38.4436 30.7367 38.311 30.7279 38.1775L30.7148 37.9786V37.7796C30.7148 37.647 30.7148 37.5179 30.7236 37.3792C30.7599 36.8426 30.8559 36.3118 31.0097 35.7965C31.1682 35.2808 31.3815 34.7835 31.6458 34.3132C32.1759 33.3805 32.8962 32.5696 33.7598 31.9331C34.1844 31.6209 34.6427 31.3575 35.1262 31.1478C35.3669 31.0441 35.6144 30.9566 35.8669 30.8861C36.1205 30.8078 36.3817 30.7566 36.646 30.7334Z" fill="#FFCB8D"/>
<path d="M15.9117 18.5801C15.5705 18.984 15.2477 19.3566 14.9397 19.7326C14.6317 20.1087 14.3359 20.4725 14.055 20.8398C13.5058 21.5519 13.0056 22.3005 12.5578 23.0804C12.3423 23.4652 12.1469 23.8586 11.9593 24.26C11.7717 24.6613 11.6146 25.0793 11.4506 25.5068C11.4157 25.6141 11.3773 25.7232 11.3398 25.8322L11.2805 25.9954L11.229 26.162C11.195 26.2737 11.1575 26.3863 11.1191 26.4988L11.0196 26.8426C10.9411 27.0738 10.8905 27.3102 10.8137 27.551C10.7369 27.7918 10.6872 28.0387 10.5964 28.2935C10.3548 27.8271 10.1846 27.3272 10.0913 26.8103C10.0677 26.6812 10.0468 26.5485 10.0267 26.4194C10.0066 26.2903 10.0023 26.1577 9.99268 26.0242L9.98047 25.8252V25.6263C9.98047 25.4937 9.98047 25.3593 9.98919 25.2258C10.0255 24.689 10.1214 24.1579 10.2754 23.6423C10.7492 22.0893 11.7146 20.7323 13.0263 19.7754C13.4505 19.463 13.9085 19.1996 14.3918 18.9901C14.6327 18.8867 14.8801 18.7993 15.1325 18.7284C15.3862 18.6512 15.6474 18.6015 15.9117 18.5801Z" fill="#FFCB8D"/>
</svg>
